<svg width="121" height="25" fill="none" xmlns="http://www.w3.org/2000/svg"><path d="M15 7.81v1.424h-.902c-.716 0-.851.32-.851.775v1.027h1.701l-.228 1.598h-1.473v4.108h-1.774v-4.108H10v-1.598h1.473V9.854c0-1.366.902-2.112 2.21-2.112.622 0 1.161.039 1.317.068z" fill="#fff"/><rect x=".5" y=".5" width="24" height="23.484" rx="11.742" stroke="#fff" stroke-opacity=".32"/><path fill-rule="evenodd" clip-rule="evenodd" d="M39.968 15.721a5.402 5.402 0 003.145 1.02c3.774 0 5.837-3.462 5.837-6.464a7.12 7.12 0 00-.006-.293c.401-.321.75-.721 1.024-1.177a3.754 3.754 0 01-1.178.357c.423-.28.748-.726.902-1.256-.397.26-.836.449-1.303.55a1.963 1.963 0 00-1.498-.716c-1.133 0-2.052 1.016-2.052 2.27 0 .18.019.352.054.519-1.705-.095-3.218-1-4.229-2.374a2.453 2.453 0 00-.278 1.143c0 .788.362 1.483.913 1.89a1.883 1.883 0 01-.93-.283v.028c0 1.1.708 2.02 1.646 2.228a1.849 1.849 0 01-.926.04c.26.902 1.018 1.56 1.916 1.577a3.865 3.865 0 01-3.037.941z" fill="#fff"/><rect x="33.5" y=".5" width="22.936" height="23.484" rx="11.468" stroke="#fff" stroke-opacity=".32"/><circle opacity=".32" cx="76.936" cy="12.242" r="11.5" stroke="#fff"/><path d="M82.997 18H83v-4.287C83 11.616 82.582 10 80.31 10c-1.092 0-1.825.647-2.124 1.26h-.032v-1.064H76V18h2.243v-3.865c0-1.017.179-2 1.346-2 1.15 0 1.168 1.16 1.168 2.066V18h2.24zM72 11h2v7h-2v-7zm1.5-4c-.828 0-1.5.669-1.5 1.493 0 .824.672 1.507 1.5 1.507S75 9.317 75 8.493C75 7.669 74.328 7 73.5 7z" fill="#fff"/><circle opacity=".32" cx="108.936" cy="12.242" r="11.5" stroke="#fff"/><g clip-path="url(#clip0_1_13525)" stroke="#fff" stroke-linecap="round" stroke-linejoin="round"><path d="M108.643 9.357l.786-.786c.867-.867 2.204-.938 2.985-.157.781.781.711 2.118-.157 2.986l-.786.785m-1.571 1.572l-1.571 1.571c-.868.868-2.205.938-2.986.157-.781-.78-.711-2.117.157-2.985l1.572-1.572M107 14l4-4"/></g><defs><clipPath id="clip0_1_13525"><path fill="#fff" transform="translate(104 7)" d="M0 0h10v10H0z"/></clipPath></defs></svg>