<svg width="121" height="25" viewBox="0 0 121 25" fill="none" xmlns="http://www.w3.org/2000/svg">
<path d="M15 7.80976V9.23387H14.0975C13.3817 9.23387 13.2469 9.55357 13.2469 10.0089V11.0358H14.9481L14.7199 12.6343H13.2469V16.7419H11.473V12.6343H10V11.0358H11.473V9.85389C11.473 8.48791 12.3755 7.74194 13.6826 7.74194C14.305 7.74194 14.8444 7.78069 15 7.80976Z" fill="white"/>
<rect x="0.5" y="0.5" width="24" height="23.4839" rx="11.7419" stroke="white" stroke-opacity="0.32"/>
<path fill-rule="evenodd" clip-rule="evenodd" d="M39.9678 15.721C40.8758 16.3662 41.9538 16.7419 43.1128 16.7419C46.8868 16.7419 48.9503 13.2792 48.9503 10.2766C48.9503 10.1781 48.9483 10.0808 48.9443 9.98351C49.3453 9.66288 49.6933 9.26294 49.9678 8.80732C49.6003 8.98844 49.2048 9.10994 48.7898 9.16394C49.2133 8.88438 49.5378 8.43776 49.6918 7.90788C49.2953 8.16776 48.8558 8.35676 48.3888 8.45857C48.0148 8.01757 47.4813 7.74194 46.8913 7.74194C45.7583 7.74194 44.8393 8.75838 44.8393 10.0128C44.8393 10.1916 44.8578 10.3643 44.8928 10.5308C43.1878 10.4363 41.6753 9.53182 40.6643 8.15707C40.4878 8.49344 40.3863 8.88269 40.3863 9.29951C40.3863 10.0876 40.7483 10.7834 41.2988 11.1906C40.9623 11.1799 40.6463 11.077 40.3693 10.9066C40.3693 10.9161 40.3693 10.9257 40.3693 10.9353C40.3693 12.0355 41.0773 12.9546 42.0148 13.1633C41.8433 13.2156 41.6618 13.2426 41.4748 13.2426C41.3423 13.2426 41.2138 13.2291 41.0888 13.2021C41.3493 14.1055 42.1073 14.7625 43.0048 14.7799C42.3028 15.3897 41.4193 15.7519 40.4573 15.7519C40.2918 15.7519 40.1288 15.7429 39.9678 15.721Z" fill="white"/>
<rect x="33.5" y="0.5" width="22.9355" height="23.4839" rx="11.4677" stroke="white" stroke-opacity="0.32"/>
<circle opacity="0.32" cx="76.9355" cy="12.2419" r="11.5" stroke="white"/>
<path d="M82.9973 18V17.9995H83V13.7127C83 11.6155 82.5817 10 80.3098 10C79.2177 10 78.4848 10.6468 78.1856 11.26H78.154V10.1958H76V17.9995H78.2429V14.1354C78.2429 13.118 78.4216 12.1342 79.5891 12.1342C80.7395 12.1342 80.7566 13.2953 80.7566 14.2007V18H82.9973Z" fill="white"/>
<path d="M72 11H74V18H72V11Z" fill="white"/>
<path d="M73.5 7C72.6719 7 72 7.6688 72 8.49301C72 9.31722 72.6719 10 73.5 10C74.3281 10 75 9.31722 75 8.49301C74.9995 7.6688 74.3276 7 73.5 7V7Z" fill="white"/>
<circle opacity="0.32" cx="108.936" cy="12.2419" r="11.5" stroke="white"/>
<g clip-path="url(#clip0_1_13525)">
<path d="M108.643 9.35702L109.429 8.57135C110.296 7.70352 111.633 7.63317 112.414 8.41421C113.195 9.19526 113.125 10.5319 112.257 11.3998L111.471 12.1854M109.9 13.7568L108.329 15.3281C107.461 16.196 106.124 16.2663 105.343 15.4853C104.562 14.7042 104.632 13.3676 105.5 12.4997L107.072 10.9284" stroke="white" stroke-linecap="round" stroke-linejoin="round"/>
<path d="M107 14L111 10" stroke="white" stroke-linecap="round" stroke-linejoin="round"/>
</g>
<defs>
<clipPath id="clip0_1_13525">
<rect width="10" height="10" fill="white" transform="translate(104 7)"/>
</clipPath>
</defs>
</svg>
